<?xml version="1.0" encoding="UTF-8" standalone="no"?>
<!-- Created with Inkscape (http://www.inkscape.org/) -->

<svg
   xmlns:ns2="http://ns.adobe.com/AdobeIllustrator/10.0/"
   xmlns:dc="http://purl.org/dc/elements/1.1/"
   xmlns:cc="http://creativecommons.org/ns#"
   xmlns:rdf="http://www.w3.org/1999/02/22-rdf-syntax-ns#"
   xmlns:svg="http://www.w3.org/2000/svg"
   xmlns="http://www.w3.org/2000/svg"
   xmlns:sodipodi="http://sodipodi.sourceforge.net/DTD/sodipodi-0.dtd"
   xmlns:inkscape="http://www.inkscape.org/namespaces/inkscape"
   width="1000"
   height="181.688"
   viewBox="0 0 264.58333 48.071618"
   version="1.1"
   id="svg44141"
   inkscape:version="0.92.2 (5c3e80d, 2017-08-06)"
   sodipodi:docname="NASDAQ.svg">
  <defs
     id="defs44135" />
  <sodipodi:namedview
     id="base"
     pagecolor="#ffffff"
     bordercolor="#666666"
     borderopacity="1.0"
     inkscape:pageopacity="0.0"
     inkscape:pageshadow="2"
     inkscape:zoom="0.49497475"
     inkscape:cx="532.10499"
     inkscape:cy="43.349827"
     inkscape:document-units="px"
     inkscape:current-layer="layer1"
     showgrid="false"
     units="px"
     inkscape:window-width="1366"
     inkscape:window-height="705"
     inkscape:window-x="-8"
     inkscape:window-y="-8"
     inkscape:window-maximized="1" />
  <metadata
     id="metadata44138">
    <rdf:RDF>
      <cc:Work
         rdf:about="">
        <dc:format>image/svg+xml</dc:format>
        <dc:type
           rdf:resource="http://purl.org/dc/dcmitype/StillImage" />
        <dc:title></dc:title>
      </cc:Work>
    </rdf:RDF>
  </metadata>
  <g
     inkscape:label="Layer 1"
     inkscape:groupmode="layer"
     id="layer1"
     transform="translate(0,-248.92838)">
    <path
       style="clip-rule:evenodd;fill:#2d98b5;fill-rule:evenodd;stroke-width:1.45694065"
       inkscape:connector-curvature="0"
       id="path42891"
       d="m 114.24891,275.56108 h -6.52415 l 3.32909,-6.92481 z m -9.45408,8.38763 h 12.38401 l 1.59827,3.46312 h 11.45153 L 116.64558,258.24971 H 105.3266 l -13.58157,29.16212 h 11.45153 z"
       ns2:knockout="Off" />
    <path
       style="clip-rule:evenodd;fill:#2d98b5;fill-rule:evenodd;stroke-width:1.45694065"
       inkscape:connector-curvature="0"
       id="path42893"
       d="M 67.377676,273.69624 80.9593,287.41332 h 9.853251 V 258.24971 H 80.426046 v 13.58162 L 66.710392,258.24971 h -9.720708 v 29.16212 h 10.38656 v -13.71559 z"
       ns2:knockout="Off" />
    <path
       style="clip-rule:evenodd;fill:#2d98b5;fill-rule:evenodd;stroke-width:1.45694065"
       inkscape:connector-curvature="0"
       id="path42895"
       d="m 137.28462,276.7587 c -7.58924,-0.13381 -7.45664,-5.19251 -7.45664,-9.45408 0,-4.12754 0,-8.92231 7.38962,-9.05491 h 22.17025 v 8.38906 h -20.63904 v 1.9975 h 15.44653 c 7.59066,0.13381 7.45658,5.19399 7.45658,9.32005 0,4.263 0.13381,9.32148 -7.45658,9.45551 h -23.16831 v -8.65568 h 21.03826 v -1.99745 z"
       ns2:knockout="Off" />
    <path
       style="clip-rule:evenodd;fill:#2d98b5;fill-rule:evenodd;stroke-width:1.45694065"
       inkscape:connector-curvature="0"
       id="path42897"
       d="m 214.51703,268.63627 -3.32909,6.92481 h 6.52564 z m -7.85729,18.77556 h -11.45153 l 13.58157,-29.16212 h 11.32047 l 13.58157,29.16212 H 222.2403 l -1.59828,-3.46312 h -12.384 z"
       ns2:knockout="Off" />
    <path
       style="clip-rule:evenodd;fill:#2d98b5;fill-rule:evenodd;stroke-width:1.45694065"
       inkscape:connector-curvature="0"
       id="path42899"
       d="m 185.4875,277.95632 v -10.25247 h -10.11844 v 10.25247 z m -5.05996,-19.70661 c 14.11482,0 16.11232,-0.53304 16.11232,14.64664 0,15.04731 -1.99601,14.51548 -16.11232,14.51548 h -15.97973 v -29.16212 z"
       ns2:knockout="Off" />
    <path
       style="clip-rule:evenodd;fill:#2d98b5;fill-rule:evenodd;stroke-width:1.45694065"
       inkscape:connector-curvature="0"
       id="path42903"
       d="m 32.756414,277.82229 c 0.266517,-0.39757 0.533034,-1.19762 0.932424,-1.46281 0.132708,0 0.132708,0 0.266517,0 0.932423,-0.26817 2.663297,-0.6658 4.261572,-1.19757 0,-0.26817 0,-0.53468 0,-0.79988 -1.863471,0.66585 -3.994945,1.19762 -6.257586,1.59679 -0.266517,0 -0.533033,0.13381 -0.799881,0.13381 -0.266517,0.93386 -1.331648,1.33165 -1.997445,0.6658 -0.798394,-0.79988 -0.133809,-2.13148 0.932424,-2.26264 0.399225,0 0.798394,0.26541 0.932479,0.66585 0.266517,-0.13381 0.533034,-0.13381 0.798394,-0.13381 2.264072,-0.40088 4.394115,-0.93391 6.12642,-1.59828 0,-0.26651 0,-0.39922 -0.133809,-0.66585 -1.598276,0.66585 -3.594289,1.19905 -5.725764,1.59828 0,0 0,0 -0.132707,0 -0.399225,-0.26817 -1.065022,-0.53304 -1.598276,-0.79988 -0.799826,0.1327 -1.598275,0.26651 -2.530699,0.26651 0.132708,2.5307 0.266517,4.92594 0.266517,7.32261 2.529267,-0.26487 4.925937,-0.66585 7.057412,-1.19762 0.399224,-0.93099 0.533033,-1.06353 0.798394,-1.73082 0,-0.13381 0.132708,-0.13381 0.266517,-0.13381 0.798394,-0.26817 1.464246,-0.39757 2.264072,-0.66579 0,-0.53194 -0.132708,-0.93391 -0.132708,-1.33165 -1.331648,0.39757 -2.795894,0.79988 -4.127543,1.19762 -0.266517,0.26817 -0.533034,0.66579 -0.799826,1.06645 0.133809,0.13106 0.266517,0.39757 0.266517,0.66585 -0.132708,1.06354 -1.331593,1.73082 -1.997445,1.06354 -0.799881,-0.79691 -0.133809,-2.26259 1.06359,-2.26259 z"
       ns2:knockout="Off" />
    <path
       style="clip-rule:evenodd;fill:#2d98b5;fill-rule:evenodd;stroke-width:1.45694065"
       inkscape:connector-curvature="0"
       id="path42905"
       d="m 38.482177,279.422 c -0.798394,0.26817 -1.730873,0.53193 -2.663296,0.79988 0,0.26486 -0.132708,0.53193 -0.266517,0.79691 0.133809,0.26817 0.133809,0.53468 0.133809,0.79988 -0.133809,1.06645 -1.464191,1.7323 -1.997445,0.93391 -0.533034,-0.66585 0.266517,-1.9975 1.065021,-1.9975 0,-0.13381 0.132708,-0.13381 0.132708,-0.26817 -2.130043,0.53193 -4.39417,0.93391 -6.79084,1.06645 0,2.79447 -0.133809,5.32368 -0.399224,7.32118 3.728318,-0.26542 6.923382,-0.93099 9.58811,-1.86347 0.798395,-2.26259 1.197619,-4.79186 1.197619,-7.58918 z"
       ns2:knockout="Off" />
    <path
       style="clip-rule:evenodd;fill:#2d98b5;fill-rule:evenodd;stroke-width:1.45694065"
       inkscape:connector-curvature="0"
       id="path42907"
       d="m 43.808771,266.10557 c -0.665852,-1.33165 -0.932479,-1.86342 -1.197619,-2.52927 -0.133809,0.13271 -0.133809,0.26652 -0.266517,0.39923 0.665797,1.06502 1.197619,2.26407 1.598276,3.46169 0,-0.53193 -0.13381,-0.93099 -0.13381,-1.33165 z"
       ns2:knockout="Off" />
    <path
       style="clip-rule:evenodd;fill:#2d98b5;fill-rule:evenodd;stroke-width:1.45694065"
       inkscape:connector-curvature="0"
       id="path42909"
       d="m 44.34197,269.56869 c -0.132708,-0.13271 -0.132708,-0.39922 -0.132708,-0.53303 -1.199106,1.33165 -3.329148,2.6633 -5.992445,3.59577 0.132708,0.26652 0.132708,0.39923 0.132708,0.6658 2.661865,-1.06502 4.793339,-2.26407 5.99239,-3.72832 z"
       ns2:knockout="Off" />
    <path
       style="clip-rule:evenodd;fill:#2d98b5;fill-rule:evenodd;stroke-width:1.45694065"
       inkscape:connector-curvature="0"
       id="path42911"
       d="m 44.739708,266.77137 c -0.399225,-1.06502 -0.932424,-2.13005 -1.59822,-3.19507 v -0.13271 c 0,0 -0.132708,-0.1338 -0.132708,-0.53303 -0.132708,0.13271 -0.132708,0.26652 -0.266517,0.39923 0.665852,0.93247 0.798394,1.33164 1.331648,2.53069 0,0.13271 0,0.13271 0.132708,0.13271 0,0.13271 0.132708,1.33165 0.266517,2.6633 l -0.132708,0.13381 c 0.132708,0.13271 0.132708,0.26652 0.266517,0.53193 0,-0.13271 0.132708,-0.26652 0.132708,-0.39922 0,-0.66586 0,-1.46568 0,-2.13153 z"
       ns2:knockout="Off" />
    <path
       style="clip-rule:evenodd;fill:#2d98b5;fill-rule:evenodd;stroke-width:1.45694065"
       inkscape:connector-curvature="0"
       id="path42913"
       d="m 38.482177,278.35841 c -0.665851,0.26541 -1.331648,0.39757 -1.997445,0.66585 -0.132707,0.26487 -0.266517,0.39757 -0.399224,0.6658 0.932423,-0.26817 1.730818,-0.53469 2.396669,-0.79983 0,-0.13381 0,-0.40198 0,-0.53193 z"
       ns2:knockout="Off" />
    <path
       style="clip-rule:evenodd;fill:#2d98b5;fill-rule:evenodd;stroke-width:1.45694065"
       inkscape:connector-curvature="0"
       id="path42915"
       d="m 36.751304,267.43722 c 0.533034,1.46419 0.932479,2.79584 1.331649,4.26152 2.663297,-0.93243 4.660797,-2.26408 5.725818,-3.59573 -0.399225,-1.33164 -0.932479,-2.66329 -1.730873,-3.99494 -1.066453,1.33165 -2.929924,2.39816 -5.326594,3.32915 z"
       ns2:knockout="Off" />
    <path
       style="clip-rule:evenodd;fill:#2d98b5;fill-rule:evenodd;stroke-width:1.45694065"
       inkscape:connector-curvature="0"
       id="path42917"
       d="m 15.579069,252.79057 c -0.266517,0.13381 -0.665851,0.26652 -0.932423,0.39923 0.266517,0.53303 0.932423,1.06502 1.864847,1.46419 0.266517,-0.13271 0.533034,-0.39923 0.798394,-0.53304 -0.665796,-0.39922 -1.197564,-0.66579 -1.464191,-1.06502 -0.132707,-0.13105 -0.132707,-0.26486 -0.266517,-0.26486 z"
       ns2:knockout="Off" />
    <path
       style="clip-rule:evenodd;fill:#2d98b5;fill-rule:evenodd;stroke-width:1.45694065"
       inkscape:connector-curvature="0"
       id="path42919"
       d="m 16.112323,255.45387 c -0.399224,0.39922 -0.932478,0.79839 -1.333135,1.19762 1.065022,0.53303 2.398157,0.79982 3.862348,1.06502 0,-0.53303 0,-1.06502 0,-1.46425 -0.930992,-0.26486 -1.863416,-0.53303 -2.529213,-0.79839 z"
       ns2:knockout="Off" />
    <path
       style="clip-rule:evenodd;fill:#2d98b5;fill-rule:evenodd;stroke-width:1.45694065"
       inkscape:connector-curvature="0"
       id="path42921"
       d="m 13.715654,253.59045 c -0.533034,0.26652 -1.065022,0.6658 -1.598276,0.93243 0.399225,0.79839 1.199051,1.46424 2.398102,1.99744 0.531932,-0.39922 0.930992,-0.79982 1.331648,-1.19905 -1.06794,-0.53303 -1.732305,-1.06502 -2.131474,-1.73082 z"
       ns2:knockout="Off" />
    <path
       style="clip-rule:evenodd;fill:#2d98b5;fill-rule:evenodd;stroke-width:1.45694065"
       inkscape:connector-curvature="0"
       id="path42923"
       d="m 10.119933,263.17708 c 1.997445,0.93248 4.394115,1.59827 7.189954,1.9975 0,-0.26652 0.132708,-0.53304 0.132708,-0.93243 -2.663297,-0.26651 -5.059966,-0.93247 -6.923382,-1.73087 -0.132708,0.13271 -0.265416,0.39923 -0.399225,0.6658 z"
       ns2:knockout="Off" />
    <path
       style="clip-rule:evenodd;fill:#2d98b5;fill-rule:evenodd;stroke-width:1.45694065"
       inkscape:connector-curvature="0"
       id="path42925"
       d="m 30.492287,272.49862 c 0,0 0,0 0.133809,0 0.399225,0.26651 1.065021,0.53193 1.464191,0.79839 2.130043,-0.39922 3.994945,-0.79839 5.591734,-1.46425 -0.266517,-1.46419 -0.798394,-2.79583 -1.199051,-4.26151 -2.529267,0.93242 -5.725763,1.59827 -9.054856,1.86485 0.133809,1.1991 0.266516,2.26412 0.266516,3.46169 0.933911,-0.13381 1.864903,-0.26652 2.797327,-0.39923 z"
       ns2:knockout="Off" />
    <path
       style="clip-rule:evenodd;fill:#2d98b5;fill-rule:evenodd;stroke-width:1.45694065"
       inkscape:connector-curvature="0"
       id="path42927"
       d="m 8.5230894,266.63877 c 2.1300426,0.93248 4.9259376,1.73087 7.9884036,2.1301 0.266517,-0.93248 0.399225,-1.86491 0.533034,-2.6633 -2.795895,-0.39922 -5.326594,-1.06502 -7.4566365,-1.9975 -0.4008766,0.79988 -0.799826,1.59828 -1.0650213,2.5307 z"
       ns2:knockout="Off" />
    <path
       style="clip-rule:evenodd;fill:#2d98b5;fill-rule:evenodd;stroke-width:1.45694065"
       inkscape:connector-curvature="0"
       id="path42929"
       d="m 15.446472,250.12728 c -0.531933,0.26651 -1.197619,0.53193 -1.730818,0.79839 0.132707,0 0.266517,0 0.533033,0 0.132708,-0.13271 0.399225,-0.13271 0.531933,-0.26652 0.133809,0 0.266517,0 0.399225,0 0,0 0,0 -0.132708,0 -0.266517,0.26652 -0.399225,0.39923 -0.665852,0.53304 2.39667,-0.53304 4.660742,-0.7984 7.191441,-0.53304 0.266517,0 1.065077,0 1.331649,0.13381 -0.266517,-0.13381 -0.932424,-0.26651 -1.197564,-0.39922 -2.132962,-0.79988 -4.263004,-0.79988 -6.260504,-0.26652 z"
       ns2:knockout="Off" />
    <path
       style="clip-rule:evenodd;fill:#2d98b5;fill-rule:evenodd;stroke-width:1.45694065"
       inkscape:connector-curvature="0"
       id="path42931"
       d="m 18.242366,253.59045 c 0.665797,0.39923 1.598276,0.6658 2.663297,0.7984 0.399225,-1.06502 0.932424,-1.9975 1.464191,-2.7959 0.133809,-0.1327 0.533034,-0.53303 0.667283,-0.66579 -0.266516,0.1327 -0.667283,0.26651 -0.932423,0.39922 -1.333135,0.66585 -2.663297,1.33165 -3.862348,2.26413 z"
       ns2:knockout="Off" />
    <path
       style="clip-rule:evenodd;fill:#2d98b5;fill-rule:evenodd;stroke-width:1.45694065"
       inkscape:connector-curvature="0"
       id="path42933"
       d="m 23.568905,251.59152 c 0.665851,1.59828 1.464246,3.72832 1.9975,6.39162 1.863416,-0.13381 3.59572,-0.53304 5.059966,-0.93248 -0.399224,-0.39923 -0.665851,-0.7984 -0.932478,-1.06502 -0.533034,0.1327 -1.199051,0.39922 -1.864848,0.53303 0,0.13271 -0.132708,0.26652 -0.132708,0.39923 -0.399224,0.26651 -0.932423,0.26651 -1.19905,-0.13271 -0.399225,-0.39923 -0.399225,-0.7984 -0.132708,-1.19905 0.266517,-0.26652 0.798394,-0.26652 1.199051,0.1327 0.533033,-0.1327 1.065021,-0.26651 1.464246,-0.39922 -1.464246,-1.59828 -3.195064,-2.92992 -4.925937,-3.86092 -0.266517,-0.1327 -0.665797,-0.39922 -0.932424,-0.53303 0.132708,0.13381 0.265415,0.53303 0.399225,0.66585 z"
       ns2:knockout="Off" />
    <path
       style="clip-rule:evenodd;fill:#2d98b5;fill-rule:evenodd;stroke-width:1.45694065"
       inkscape:connector-curvature="0"
       id="path42935"
       d="m 22.636481,251.59152 c -0.531932,0.7984 -1.065021,1.73082 -1.464246,2.79584 0.266517,0 0.798449,0.13271 1.197619,0.13271 0.133809,-0.26652 0.266517,-0.39923 0.667283,-0.39923 0.399225,0 0.798395,0.26652 0.798395,0.66729 0,0.39922 -0.266517,0.79845 -0.798395,0.79845 -0.399224,0 -0.667283,-0.13271 -0.798394,-0.39923 -0.533034,0 -0.932424,-0.13381 -1.465678,-0.13381 -0.266517,0.79983 -0.665851,1.73231 -1.066508,2.66473 0.132708,0 0.132708,0.13271 0.266517,0.26652 1.598276,0.13271 3.461691,0.26652 5.326594,0 -0.533034,-2.5307 -1.199051,-4.66074 -1.864903,-6.25902 -0.132708,-0.26652 -0.266517,-0.53303 -0.266517,-0.79839 -0.265415,0.26486 -0.399224,0.53193 -0.531932,0.66436 z"
       ns2:knockout="Off" />
    <path
       style="clip-rule:evenodd;fill:#2d98b5;fill-rule:evenodd;stroke-width:1.45694065"
       inkscape:connector-curvature="0"
       id="path42937"
       d="m 16.644091,252.39135 c 0.132708,0.39922 0.665796,0.79845 1.331648,1.1991 1.197619,-0.93248 2.39667,-1.59827 3.595721,-2.13004 0.266517,-0.13271 1.197619,-0.53303 1.331648,-0.53303 -0.266517,0 -1.065021,0.1327 -1.331648,0.1327 -1.730818,0.26652 -3.329094,0.6658 -4.927369,1.3316 z"
       ns2:knockout="Off" />
    <path
       style="clip-rule:evenodd;fill:#2d98b5;fill-rule:evenodd;stroke-width:1.45694065"
       inkscape:connector-curvature="0"
       id="path42939"
       d="m 17.576514,254.25625 c -0.266516,0.13271 -0.531932,0.39923 -0.798394,0.53303 0.665852,0.26487 1.464246,0.53194 2.39667,0.7984 0,0 0,0 0.133809,0 0,0.6658 0,0.79988 0,1.8649 l 0.132708,0.13271 c 0.399224,-0.93242 0.665796,-1.86485 1.065021,-2.5307 -1.065021,-0.26652 -2.130043,-0.53303 -2.929924,-0.79839 z"
       ns2:knockout="Off" />
    <path
       style="clip-rule:evenodd;fill:#2d98b5;fill-rule:evenodd;stroke-width:1.45694065"
       inkscape:connector-curvature="0"
       id="path42941"
       d="m 14.247421,251.45892 c -0.266517,0.39923 -0.399225,0.66586 -0.399225,1.06503 0,-0.13271 0,-0.13271 0.133809,-0.13271 0.132708,0 0.266517,-0.13271 0.399225,-0.13271 0,0.26652 0,0.53193 0.133809,0.6658 0.399225,-0.13381 0.665852,-0.26652 1.065022,-0.39923 -0.13381,-0.13271 -0.13381,-0.39922 -0.13381,-0.66585 -0.399224,0 -0.665796,0 -0.531932,0 0.132708,-0.26652 2.130043,-0.79839 2.39667,-0.6658 -0.132708,0.13381 -0.533034,0.26652 -0.932424,0.39923 0,0.13271 0,0.39922 0.132708,0.53303 1.730873,-0.53303 3.195064,-0.93242 4.925937,-1.19905 0.133809,0 1.331648,-0.13271 1.464191,-0.13271 -0.132708,0 -0.665797,0 -0.932424,0 -2.52778,-0.26651 -5.457704,-0.001 -7.721776,0.66437 z"
       ns2:knockout="Off" />
    <path
       style="clip-rule:evenodd;fill:#2d98b5;fill-rule:evenodd;stroke-width:1.45694065"
       inkscape:connector-curvature="0"
       id="path42943"
       d="m 24.368786,250.52793 c -0.133809,0 -0.799881,0.13271 -1.065022,0.26652 0.266517,0 1.331649,-0.13381 1.464247,-0.13381 2.663241,-0.13271 4.793339,0.26652 7.191441,0.93242 -0.266517,-0.53303 -0.932424,-0.93242 -1.730874,-1.33164 -1.866334,-0.39923 -3.731181,-0.26652 -5.859792,0.26651 z"
       ns2:knockout="Off" />
    <path
       style="clip-rule:evenodd;fill:#2d98b5;fill-rule:evenodd;stroke-width:1.45694065"
       inkscape:connector-curvature="0"
       id="path42945"
       d="m 33.023041,252.12478 c 0.266517,0.66579 0.132708,1.33159 -0.266517,1.99744 0.399225,0.26652 0.799826,0.53303 1.199051,0.7984 0.533034,-0.7984 0.665797,-1.46425 0.266517,-2.26265 -0.400877,-0.1338 -0.799881,-0.26651 -1.199051,-0.53303 z"
       ns2:knockout="Off" />
    <path
       style="clip-rule:evenodd;fill:#2d98b5;fill-rule:evenodd;stroke-width:1.45694065"
       inkscape:connector-curvature="0"
       id="path42947"
       d="m 32.890444,259.58136 c 0.266516,0.39922 0.531932,0.79839 0.798394,1.19762 0.399225,-0.13271 0.798394,-0.26652 1.197619,-0.53194 1.065021,0.53194 2.130043,1.19762 3.196496,1.86342 0,-0.13271 0,-0.26652 0.132708,-0.26652 0.266516,-0.13381 0.798394,0.26652 1.197619,0.7984 0.399224,0.79988 0.266516,1.46567 -0.266517,1.33313 -0.399225,-0.13381 -0.798395,-0.66728 -1.065022,-1.1991 -0.932423,-0.53304 -1.864902,-1.06503 -2.795894,-1.59822 -0.399225,0.1327 -0.798395,0.26651 -1.197564,0.39922 1.065021,1.73087 1.863416,3.59572 2.529212,5.45919 2.39667,-0.93248 4.260086,-1.9975 5.326594,-3.32915 -1.464246,-2.39667 -3.329094,-4.66074 -5.326594,-6.52564 -0.798394,0.9354 -2.130043,1.73379 -3.726831,2.39959 z"
       ns2:knockout="Off" />
    <path
       style="clip-rule:evenodd;fill:#2d98b5;fill-rule:evenodd;stroke-width:1.45694065"
       inkscape:connector-curvature="0"
       id="path42949"
       d="m 31.558795,250.52793 c -0.132708,0 -0.399225,-0.13271 -0.533034,-0.13271 0.798395,0.39923 1.464246,0.93243 1.864903,1.59822 0.399224,0.13271 0.798394,0.26652 1.199051,0.39923 -0.533034,-0.66728 -1.333081,-1.33308 -2.5307,-1.8649 z"
       ns2:knockout="Off" />
    <path
       style="clip-rule:evenodd;fill:#2d98b5;fill-rule:evenodd;stroke-width:1.45694065"
       inkscape:connector-curvature="0"
       id="path42951"
       d="m 42.077898,259.84798 c 0,0.39923 -0.132708,0.7984 -0.266517,1.33165 l 0.266517,1.06502 c 0.132708,0.26652 0.266517,0.39923 0.399225,0.66586 0.133809,-0.13271 0.133809,-0.39923 0.266517,-0.53304 -0.132708,-0.26651 -0.266517,-0.39922 -0.266517,-0.66585 0.133809,-0.26652 0.133809,-0.53193 0.133809,-0.6658 0,-0.1327 0,-0.1327 0,-0.1327 0.132708,0.1327 0.266517,0.26651 0.399224,0.26651 0,-0.26651 0,-0.39922 -0.132707,-0.66579 -0.266517,-0.26652 -0.533034,-0.39923 -0.799881,-0.66586 z"
       ns2:knockout="Off" />
    <path
       style="clip-rule:evenodd;fill:#2d98b5;fill-rule:evenodd;stroke-width:1.45694065"
       inkscape:connector-curvature="0"
       id="path42953"
       d="m 24.368786,251.45892 c 1.730873,0.93243 3.329093,2.13005 4.925937,3.72832 1.065021,-0.39922 1.863416,-0.79839 2.39667,-1.33165 -2.264127,-1.33164 -4.79334,-2.26407 -7.191496,-2.66329 -0.266517,-0.13271 -0.932424,-0.26652 -1.197564,-0.26652 0.266517,0 0.932423,0.40088 1.066453,0.53303 z"
       ns2:knockout="Off" />
    <path
       style="clip-rule:evenodd;fill:#2d98b5;fill-rule:evenodd;stroke-width:1.45694065"
       inkscape:connector-curvature="0"
       id="path42955"
       d="m 44.873792,272.76376 c 0,-0.13271 0,-0.39923 0,-0.6658 -1.331648,1.73082 -3.595775,2.92992 -6.126474,3.86086 0,0.40088 0.133809,0.79988 0.133809,1.33165 1.199051,-0.53193 2.396614,-1.06354 3.329093,-1.59679 0,-0.13381 0,-0.13381 0,-0.13381 0,-0.26817 0,-0.39757 0,-0.53193 0,0 0.133809,-0.13381 0.266517,-0.13381 0.932424,-0.66437 1.864848,-1.33016 2.39667,-2.13004 z"
       ns2:knockout="Off" />
    <path
       style="clip-rule:evenodd;fill:#2d98b5;fill-rule:evenodd;stroke-width:1.45694065"
       inkscape:connector-curvature="0"
       id="path42957"
       d="m 35.95291,256.38629 c 0.665852,-0.79982 0.798394,-1.73081 0.399225,-2.66329 -0.266517,-0.13271 -0.533034,-0.26652 -0.932479,-0.39923 -0.266517,-0.13271 -0.533034,-0.26652 -0.665797,-0.39922 0.266517,0.79839 0.132708,1.59827 -0.399224,2.26407 0.531932,0.39757 1.065021,0.79845 1.598275,1.19762 z"
       ns2:knockout="Off" />
    <path
       style="clip-rule:evenodd;fill:#2d98b5;fill-rule:evenodd;stroke-width:1.45694065"
       inkscape:connector-curvature="0"
       id="path42959"
       d="m 25.299778,287.67703 c -1.598276,1.19762 -1.864903,1.33165 -2.795895,1.99744 -0.133809,0.13381 -0.133809,0.13381 -0.133809,0.13381 -0.132708,0 -0.132708,0 -0.265415,0 -1.864903,0 -3.728319,-0.13381 -5.460623,-0.39757 0.132707,0.26542 0.132707,0.66293 0.266517,0.93099 1.730818,0.26817 3.59572,0.39758 5.593165,0.39758 1.598276,-0.931 1.730873,-1.06354 2.529268,-1.59679 0.132707,0 0.132707,0 0.266516,0 0.665797,-0.13381 1.331649,-0.13381 1.997446,-0.13381 0.132707,-2.13153 0.266516,-4.66074 0.266516,-7.45521 -2.398101,0.26542 -4.794771,0.26542 -7.191441,0.13381 -0.266516,0.26487 -0.533033,0.39758 -0.798394,0.53193 0,0 0,0.13106 -0.132708,0.13106 0,0 0,0 -0.132707,0 -1.199051,-0.13106 -2.264073,-0.26541 -3.329094,-0.39757 0,2.52927 0.133809,4.92594 0.533034,6.79227 1.730818,0.26486 3.59572,0.39757 5.459136,0.39757 1.464246,-1.06359 1.598276,-1.19762 2.529268,-1.86341 -0.531933,-0.79988 0.399224,-1.73088 1.465677,-1.46568 0.665797,0 0.932424,0.53193 0.932424,0.93385 -0.135461,0.66437 -0.93391,0.92956 -1.599707,0.92956 z"
       ns2:knockout="Off" />
    <path
       style="clip-rule:evenodd;fill:#2d98b5;fill-rule:evenodd;stroke-width:1.45694065"
       inkscape:connector-curvature="0"
       id="path42961"
       d="m 42.077898,263.4437 c 0.132708,0 0.132708,-0.1338 0.266517,-0.26651 -0.133809,-0.26652 -0.266517,-0.39923 -0.533034,-0.7984 0,0 0,-0.1327 -0.132708,-0.1327 0,-0.26652 -0.399224,-1.46425 -0.533034,-1.73088 0,0 0,0 0,-0.13381 0.266517,-0.39922 0.266517,-0.93242 0.266517,-1.33164 0,0 0,0 0,-0.13271 0.932424,0.66585 1.065022,0.66585 1.331649,1.06502 0,-0.13271 -0.132708,-0.39923 -0.132708,-0.39923 -0.665852,-1.06502 -1.464246,-1.9975 -2.39667,-2.79589 0.132708,0.26652 0.132708,0.53303 -0.132708,0.93248 0.132708,0.39922 0,0.66579 -0.266517,0.79839 -0.266516,0.26652 -0.665796,0.13381 -0.932423,-0.26651 -0.266517,-0.39923 -0.133809,-0.93248 0.132708,-1.06503 0.132707,-0.1327 0.266516,-0.1327 0.399224,-0.1327 0.266517,-0.13271 0.399225,-0.53194 0.399225,-0.7984 -0.798394,-0.66585 -1.730873,-1.33165 -2.663297,-1.99744 0.399225,0.93242 0.266517,1.86341 -0.399225,2.79584 2.130043,1.86198 3.994946,3.99202 5.326594,6.39012 z"
       ns2:knockout="Off" />
    <path
       style="clip-rule:evenodd;fill:#2d98b5;fill-rule:evenodd;stroke-width:1.45694065"
       inkscape:connector-curvature="0"
       id="path42963"
       d="m 3.3290935,262.91051 c -0.3992247,-0.79845 -0.5330338,-1.59828 -0.2665169,-2.39667 -0.7983944,1.33164 -1.3316484,2.39667 -1.7308181,3.59572 0,0.66579 0,1.46419 0.3992247,2.13004 0.3992247,-1.19905 0.9324788,-2.26407 1.5982755,-3.32909 z"
       ns2:knockout="Off" />
    <path
       style="clip-rule:evenodd;fill:#2d98b5;fill-rule:evenodd;stroke-width:1.45694065"
       inkscape:connector-curvature="0"
       id="path42965"
       d="m 12.915773,251.72555 c 0.266516,-0.13271 0.399224,-0.13271 0.665851,-0.26652 0.132708,-0.1327 0.399225,-0.26651 0.665797,-0.53303 -0.132708,0 -0.266517,0.13271 -0.266517,0.13271 -0.266517,0 -0.399225,0.13271 -0.533034,0.13271 -0.266517,0.13381 -0.533034,0.39922 -0.798394,0.66579 0.133809,-0.13105 0.266517,-0.13105 0.266517,-0.13105 z"
       ns2:knockout="Off" />
    <path
       style="clip-rule:evenodd;fill:#2d98b5;fill-rule:evenodd;stroke-width:1.45694065"
       inkscape:connector-curvature="0"
       id="path42967"
       d="m 38.482177,274.22943 c 0.132708,0.26817 0.132708,0.53194 0.132708,0.66586 1.065022,-0.39758 2.130043,-0.79988 3.196496,-1.46425 1.331648,-0.6658 2.264072,-1.46419 2.928437,-2.26407 -0.132708,-0.13271 -0.132708,-0.39923 -0.132708,-0.6658 -1.330216,1.46419 -3.329148,2.66324 -6.124988,3.72826 z"
       ns2:knockout="Off" />
    <path
       style="clip-rule:evenodd;fill:#2d98b5;fill-rule:evenodd;stroke-width:1.45694065"
       inkscape:connector-curvature="0"
       id="path42969"
       d="m 45.140364,271.83276 c 0,0.26652 0,0.39923 0,0.66586 0.665852,-0.7984 0.932479,-1.59828 1.065077,-2.39667 0,-0.26652 0,-0.53304 -0.133809,-0.93243 0.0015,1.06502 -0.397573,1.86342 -0.930992,2.66324 z"
       ns2:knockout="Off" />
    <path
       style="clip-rule:evenodd;fill:#2d98b5;fill-rule:evenodd;stroke-width:1.45694065"
       inkscape:connector-curvature="0"
       id="path42971"
       d="m 21.970684,280.48702 c -0.266517,0.26817 -0.665851,0.53193 -1.065021,0.79988 2.264072,0.13381 4.526712,0 6.658187,-0.13381 0,-2.26258 0,-4.79185 -0.266517,-7.19001 -0.132708,0 -0.266517,0 -0.399225,0 -0.399224,0.79845 -1.464246,1.06508 -1.9975,0.26652 -0.665796,-0.79839 -0.132708,-2.13004 0.932479,-1.99745 0.399225,0 0.798394,0.26652 1.065021,0.6658 0.132708,0 0.266517,0 0.399225,0 -0.132708,-1.06502 -0.132708,-2.26258 -0.266517,-3.32909 -3.329093,0.26651 -6.923382,0.13271 -10.119878,-0.26652 -0.399225,2.26413 -0.665852,4.5282 -0.798394,6.65676 0.531932,-0.39758 1.065021,-0.93094 1.730818,-1.46276 -0.132708,-0.79983 0.399224,-1.59971 1.197619,-1.59971 0.665796,0.13271 1.199051,0.79839 1.065021,1.46568 -0.132708,0.93099 -1.065021,1.33165 -1.730873,0.93099 -1.199051,1.06645 -1.59822,1.46568 -2.398101,2.13153 0,0.53193 0,1.06353 0,1.73082 0.399224,0 0.932423,0.13381 1.331648,0.13381 1.197619,-1.06354 1.598275,-1.46568 2.39667,-2.13148 -0.533034,-0.79696 0.132708,-1.86347 1.19905,-1.73087 0.665852,0 1.065022,0.66585 1.065022,1.33165 -0.132708,0.79988 -0.932424,1.19762 -1.598276,1.06359 -1.065021,1.06645 -1.331648,1.33165 -2.529212,2.3981 0,0 -0.132708,0 -0.132708,0.13105 -0.133809,0 -0.133809,0 -0.266517,-0.13105 -0.533033,0 -0.932423,0 -1.464246,-0.13381 0,0.26541 0,0.53193 0,0.79983 1.065077,0.13105 2.264127,0.26541 3.329149,0.26541 0.665796,-0.39757 1.331648,-0.93099 1.997445,-1.33165 -0.266517,-0.79696 0.266517,-1.73087 1.331648,-1.59679 0.665852,0 1.199051,0.6658 1.065022,1.33165 0.0015,0.7984 -0.932424,1.19905 -1.730818,0.93243 z"
       ns2:knockout="Off" />
    <path
       style="clip-rule:evenodd;fill:#2d98b5;fill-rule:evenodd;stroke-width:1.45694065"
       inkscape:connector-curvature="0"
       id="path42973"
       d="m 46.337983,271.29957 c -0.132707,0.66579 -0.531932,1.46419 -1.065021,2.13004 0,0.39922 0,0.79839 0,1.19762 0.665852,-0.79697 0.932479,-1.59685 1.065021,-2.26264 0,-0.13271 0,-0.26652 0,-0.26652 0,-0.39922 0,-0.53193 0,-0.79839 z"
       ns2:knockout="Off" />
    <path
       style="clip-rule:evenodd;fill:#2d98b5;fill-rule:evenodd;stroke-width:1.45694065"
       inkscape:connector-curvature="0"
       id="path42975"
       d="m 46.337983,271.16697 c -0.132707,-0.26652 -0.132707,-0.6658 -0.132707,-0.93243 0,0.26652 0,0.66437 0.132707,0.93243 z"
       ns2:knockout="Off" />
    <path
       style="clip-rule:evenodd;fill:#2d98b5;fill-rule:evenodd;stroke-width:1.45694065"
       inkscape:connector-curvature="0"
       id="path42977"
       d="m 40.878847,279.15394 c 0.266517,0 0.399225,0.26817 0.399225,0.40088 1.065076,-0.53194 2.663297,-1.46574 3.728318,-2.6633 0,-0.40088 0,-0.93391 0,-1.33165 -1.199051,1.33165 -3.329093,2.6633 -6.124933,3.72832 0,2.79733 -0.399225,5.32654 -1.199106,7.45807 2.398157,-0.93391 4.261573,-1.99745 5.459192,-3.3291 0.932423,-1.73087 1.464191,-3.5972 1.730818,-5.59465 -0.798395,0.93386 -2.130043,1.86634 -3.595721,2.66324 -0.399225,0.79988 -1.065021,1.33165 -1.464246,0.93391 -0.397573,-0.66579 0.401978,-2.39518 1.066508,-2.2655 z"
       ns2:knockout="Off" />
    <path
       style="clip-rule:evenodd;fill:#2d98b5;fill-rule:evenodd;stroke-width:1.45694065"
       inkscape:connector-curvature="0"
       id="path42979"
       d="m 44.607165,263.84293 c -0.132707,0 -0.399224,-0.53303 -0.665851,-1.06502 -0.133809,-0.26652 -0.399225,-0.53304 -0.665797,-0.7984 0,0.13271 -0.133809,0.39923 -0.133809,0.53304 l 0.266517,0.79839 c 1.065021,1.99745 1.065021,2.13004 1.464191,3.3291 0.132708,0 0.132708,0.1327 0.132708,0.1327 0,0.6658 0.132707,1.73082 0.132707,2.92987 -0.132707,0.26652 -0.266517,0.39923 -0.399224,0.53304 0.133809,0.26651 0.133809,0.39922 0.133809,0.66585 0.932423,-1.06502 1.065021,-1.9975 1.065021,-2.6633 0,-0.13271 0,-0.13271 0,-0.26652 -0.266517,-1.46424 -0.399225,-1.73087 -1.065021,-3.86091 -0.133809,-0.26652 -0.266517,-0.53304 -0.399225,-0.79983 0.133809,0.26487 0.266517,0.53193 0.133809,0.53193 z"
       ns2:knockout="Off" />
    <path
       style="clip-rule:evenodd;fill:#2d98b5;fill-rule:evenodd;stroke-width:1.45694065"
       inkscape:connector-curvature="0"
       id="path42981"
       d="m 13.04837,259.98058 c -0.399224,0.26652 -0.932479,0.6658 -1.331648,0.93243 -0.133809,0 -0.133809,0 -0.133809,0.1327 -0.132708,0 -0.132708,-0.1327 -0.132708,-0.1327 -0.132708,0.26651 -0.266517,0.53303 -0.399225,0.66585 1.863471,0.79839 4.127543,1.46419 6.658242,1.86484 0.399225,-1.46419 0.665797,-2.79583 1.197619,-4.12748 -0.132708,0 -0.132708,0 -0.132708,0 -0.533033,-0.13271 -0.665796,-0.53304 -0.399224,-1.06502 v -0.13381 c -1.465678,-0.26652 -2.663242,-0.53304 -3.72975,-1.06502 h -0.132708 c -0.799826,0.93242 -1.59822,1.86484 -2.398101,2.92986 0.399224,-0.26651 0.665796,-0.39922 1.065021,-0.66579 0.266517,-0.66585 1.065021,-1.33165 1.464246,-1.06502 0.266517,0.1327 0.132708,0.66579 -0.266517,1.19761 -0.528628,0.6658 -1.060671,0.7984 -1.32873,0.53194 z"
       ns2:knockout="Off" />
    <path
       style="clip-rule:evenodd;fill:#2d98b5;fill-rule:evenodd;stroke-width:1.45694065"
       inkscape:connector-curvature="0"
       id="path42983"
       d="m 33.155584,265.70635 c -0.132708,-0.13271 -0.266517,-0.26652 -0.399225,-0.39923 -1.730873,0.53303 -3.594289,0.79839 -5.725818,1.06502 0.132708,0.7984 0.266517,1.73082 0.399224,2.66324 3.329094,-0.26651 6.391615,-0.93242 8.922315,-1.86341 -0.799881,-1.86485 -1.598276,-3.72832 -2.5307,-5.46063 -0.665851,0.26652 -1.331648,0.53304 -2.130042,0.66586 -0.132708,0.39922 -0.399225,1.06502 -0.665852,1.46419 0,0.13381 -0.132708,0.13381 -0.132708,0.13381 -1.197564,0.26651 -2.663242,0.39922 -4.127488,0.53193 0.133809,0.26652 0.133809,0.53303 0.133809,0.79839 1.997501,-0.1327 3.860916,-0.39922 5.459192,-0.79839 0,-0.53193 0.132708,-0.93242 0.533034,-0.93242 0.399224,-0.13271 0.932478,0.26651 1.199105,0.93242 0.263764,0.93242 -0.135461,1.46568 -0.935397,1.19905 z"
       ns2:knockout="Off" />
    <path
       style="clip-rule:evenodd;fill:#2d98b5;fill-rule:evenodd;stroke-width:1.45694065"
       inkscape:connector-curvature="0"
       id="path42985"
       d="m 15.446472,280.75365 c 0,-0.26817 0,-0.40088 0,-0.66585 -2.79584,-0.39758 -5.325107,-1.06354 -7.5891792,-1.86342 H 7.7234836 c -0.6658517,-1.19762 -0.9324787,-1.86342 -1.464246,-2.79733 0,0 0,0 -0.1327078,-0.13381 0,0.53469 0,0.93391 0,1.33165 0.2665169,0.79983 0.5330338,1.33165 1.0650213,2.13148 2.3966698,0.93391 5.1925639,1.59684 8.2550309,1.9975 z"
       ns2:knockout="Off" />
    <path
       style="clip-rule:evenodd;fill:#2d98b5;fill-rule:evenodd;stroke-width:1.45694065"
       inkscape:connector-curvature="0"
       id="path42987"
       d="m 24.499897,250.79313 c -0.132708,0 -0.932424,0 -1.065022,0 0.132708,0.13271 1.199051,0.26651 1.464246,0.26651 2.529268,0.53304 4.660742,1.3316 6.923383,2.5307 0.399224,-0.53303 0.533034,-1.06502 0.266517,-1.73087 -2.395238,-0.79983 -4.925938,-1.06645 -7.589234,-1.06645 z"
       ns2:knockout="Off" />
    <path
       style="clip-rule:evenodd;fill:#2d98b5;fill-rule:evenodd;stroke-width:1.45694065"
       inkscape:connector-curvature="0"
       id="path42989"
       d="m 32.357189,258.78296 c 1.464247,-0.66579 2.663297,-1.33165 3.461692,-2.13004 -0.533034,-0.53193 -1.065022,-0.93242 -1.598276,-1.33165 -0.665797,0.7984 -1.598275,1.46425 -3.063953,1.9975 0.401978,0.39923 0.801313,0.93094 1.200537,1.46419 z"
       ns2:knockout="Off" />
    <path
       style="clip-rule:evenodd;fill:#2d98b5;fill-rule:evenodd;stroke-width:1.45694065"
       inkscape:connector-curvature="0"
       id="path42991"
       d="m 26.497397,265.43972 c 0,-0.26652 0,-0.6658 -0.132708,-0.93243 -2.929924,0.26652 -5.858361,0.26652 -8.521658,-0.1327 0,0.26651 -0.132707,0.53303 -0.132707,0.79839 2.795894,0.40088 5.724331,0.53303 8.786853,0.26652 z"
       ns2:knockout="Off" />
    <path
       style="clip-rule:evenodd;fill:#2d98b5;fill-rule:evenodd;stroke-width:1.45694065"
       inkscape:connector-curvature="0"
       id="path42993"
       d="m 17.044747,268.7703 c 3.195064,0.39922 6.524158,0.53193 9.853306,0.26652 0,-0.93243 -0.133809,-1.86342 -0.266517,-2.6633 -3.195064,0.26652 -6.257585,0.13271 -9.187454,-0.26652 -0.133809,0.93099 -0.266517,1.73087 -0.399225,2.6633 z"
       ns2:knockout="Off" />
    <path
       style="clip-rule:evenodd;fill:#2d98b5;fill-rule:evenodd;stroke-width:1.45694065"
       inkscape:connector-curvature="0"
       id="path42995"
       d="m 26.631426,263.5763 c 1.331649,-0.13271 2.663297,-0.26651 3.860861,-0.53303 0.133809,-0.39923 0.399225,-0.93243 0.533034,-1.33165 0.132708,-0.13271 0.132708,-0.13271 0.132708,-0.13271 0.799826,-0.26651 1.464191,-0.39922 2.130042,-0.66585 -0.266517,-0.39922 -0.533033,-0.79839 -0.798394,-1.19762 -1.065021,0.39923 -2.39667,0.66585 -3.728318,0.93248 -0.132708,0.13271 -0.132708,0.26652 -0.266517,0.39923 -0.399225,0.26651 -1.065021,0.1338 -1.331648,-0.26652 -0.399225,-0.53193 -0.266517,-1.06508 0.132707,-1.33165 0.266517,-0.26652 0.932424,-0.26652 1.199051,0.26652 0.132708,0 0.132708,0 0.132708,0 1.199051,-0.13271 2.39667,-0.53304 3.329093,-0.7984 -0.266517,-0.53303 -0.665796,-1.06502 -1.065021,-1.59822 -1.464246,0.53193 -3.329094,0.93243 -5.192564,1.06502 0.400876,1.59679 0.665851,3.32761 0.932478,5.19251 z"
       ns2:knockout="Off" />
    <path
       style="clip-rule:evenodd;fill:#2d98b5;fill-rule:evenodd;stroke-width:1.45694065"
       inkscape:connector-curvature="0"
       id="path42997"
       d="m 15.579069,277.82229 c -0.133809,0.13381 -0.266517,0.26817 -0.399224,0.40088 -0.132708,0 -0.132708,0 -0.132708,0.13381 -0.132708,0 -0.132708,-0.13381 -0.266517,-0.13381 -2.26264,-0.26817 -4.39417,-0.79988 -6.2575856,-1.46568 -0.1338092,0 -0.1338092,0 -0.266517,0 -0.5330338,-1.19762 -0.7983943,-1.59684 -1.3316484,-3.06252 -0.2665169,-0.13271 -0.3992247,-0.13271 -0.5319324,-0.26652 0,0.39923 0,0.66585 -0.1338092,0.93248 0.1338092,0 0.2665169,0.13381 0.2665169,0.13381 0.1327078,0 0.1327078,0 0.1327078,0.13106 0.5319325,1.0665 0.9324237,1.86341 1.464191,2.66329 2.1300429,0.79988 4.6607419,1.33165 7.3226069,1.73231 0.133809,-0.39923 0.133809,-0.79697 0.133809,-1.19905 z"
       ns2:knockout="Off" />
    <path
       style="clip-rule:evenodd;fill:#2d98b5;fill-rule:evenodd;stroke-width:1.45694065"
       inkscape:connector-curvature="0"
       id="path42999"
       d="m 5.9923903,278.22438 0.1327078,0.13381 -0.1327078,-0.40088 c 0,0.13271 0,0.26652 0,0.26652 z"
       ns2:knockout="Off" />
    <path
       style="clip-rule:evenodd;fill:#2d98b5;fill-rule:evenodd;stroke-width:1.45694065"
       inkscape:connector-curvature="0"
       id="path43001"
       d="m 16.511493,269.16804 c -3.195064,-0.39923 -5.99239,-1.19762 -8.2564623,-2.13005 -0.3992247,1.19905 -0.7983944,2.39811 -1.1990508,3.59572 1.0650214,0.53194 2.1300428,0.93248 3.4616911,1.19762 0.132708,-0.26651 0.533034,-0.53303 0.932424,-0.39922 0.533034,0.13381 0.932423,0.79988 0.798394,1.46424 -0.266517,1.06503 -1.331648,1.19762 -1.730818,0.39923 -0.132708,-0.13271 -0.266517,-0.26652 -0.266517,-0.39923 -1.1990506,-0.39922 -2.3981564,-0.79839 -3.461691,-1.33164 0,0.39922 -0.1327078,0.66585 -0.1327078,0.93242 0.1327078,0.13271 0.3992247,0.13271 0.5319325,0.26652 h 0.1343598 c 0.3992247,1.1991 0.6657967,1.59827 1.3315933,3.06395 1.8634712,0.66293 3.8609162,1.06359 5.9909582,1.46276 0.399225,-0.39757 0.665852,-0.6658 0.932424,-0.93099 0.268169,-2.26407 0.534686,-4.79329 0.933911,-7.19144 z"
       ns2:knockout="Off" />
    <path
       style="clip-rule:evenodd;fill:#2d98b5;fill-rule:evenodd;stroke-width:1.45694065"
       inkscape:connector-curvature="0"
       id="path43003"
       d="m 19.973184,258.38379 c 0,0 -0.133809,0.13271 -0.133809,0.26652 -0.132708,0.26652 -0.399225,0.53193 -0.665797,0.66585 -0.399224,1.19905 -0.798449,2.6633 -1.065021,4.12749 2.530699,0.39922 5.326539,0.39922 8.122433,0.13271 -0.266517,-1.73082 -0.533034,-3.59572 -0.932479,-5.19251 -1.729386,0.26652 -3.594233,0.13271 -5.325107,0 z"
       ns2:knockout="Off" />
    <path
       style="clip-rule:evenodd;fill:#2d98b5;fill-rule:evenodd;stroke-width:1.45694065"
       inkscape:connector-curvature="0"
       id="path43005"
       d="m 30.892943,256.91806 c 1.331649,-0.53193 2.264128,-1.19905 2.929924,-1.86485 -0.399224,-0.26541 -0.798394,-0.53193 -1.331648,-0.79839 -0.533034,0.6658 -1.33308,1.19905 -2.530699,1.59822 0.266517,0.39922 0.665851,0.66585 0.932423,1.06502 z"
       ns2:knockout="Off" />
    <path
       style="clip-rule:evenodd;fill:#2d98b5;fill-rule:evenodd;stroke-width:1.45694065"
       inkscape:connector-curvature="0"
       id="path43007"
       d="m 46.072843,275.02788 c 0.133809,-0.53193 0.133809,-0.93391 0.133809,-1.33313 -0.133809,0.39922 -0.533034,0.93099 -0.932423,1.46568 0,0.39757 0,0.93099 0,1.32873 0.399224,-0.39647 0.664364,-0.92808 0.798394,-1.46128 z"
       ns2:knockout="Off" />
    <path
       style="clip-rule:evenodd;fill:#2d98b5;fill-rule:evenodd;stroke-width:1.45694065"
       inkscape:connector-curvature="0"
       id="path43009"
       d="m 1.0650214,279.422 c 0.1327078,0 0.1327078,0.13381 0.1327078,0.26817 0,-0.13381 0,-0.26817 -0.1327078,-0.26817 z"
       ns2:knockout="Off" />
    <path
       style="clip-rule:evenodd;fill:#2d98b5;fill-rule:evenodd;stroke-width:1.45694065"
       inkscape:connector-curvature="0"
       id="path43011"
       d="M 1.3316484,279.95377 Z"
       ns2:knockout="Off" />
    <path
       style="clip-rule:evenodd;fill:#2d98b5;fill-rule:evenodd;stroke-width:1.45694065"
       inkscape:connector-curvature="0"
       id="path43013"
       d="m 0.26662703,274.09541 c -0.1338091,-0.13271 -0.1338091,-0.39923 -0.26651689905,-0.53194 0,0.39923 0,0.79988 0.13270779905,1.19762 0,0.13381 0,0.40088 0,0.53193 0,-0.26486 0.1338091,-0.79696 0.1338091,-1.19761 z"
       ns2:knockout="Off" />
    <path
       style="clip-rule:evenodd;fill:#2d98b5;fill-rule:evenodd;stroke-width:1.45694065"
       inkscape:connector-curvature="0"
       id="path43015"
       d="m 0.79839433,278.35841 c 0,0.13105 0,0.13105 0.1327078,0.39757 v 0.13381 c 0.001432,-0.13381 -0.1327078,-0.40198 -0.1327078,-0.53193 z"
       ns2:knockout="Off" />
    <path
       style="clip-rule:evenodd;fill:#2d98b5;fill-rule:evenodd;stroke-width:1.45694065"
       inkscape:connector-curvature="0"
       id="path43017"
       d="m 7.855806,287.81106 c -0.3992247,-0.6658 -0.7983944,-1.33165 -1.0650214,-2.13153 -0.1327078,-0.13106 -0.3992247,-0.39757 -0.5330338,-0.6658 -1.8634157,-0.93099 -3.3290935,-1.99744 -4.1274878,-3.19506 0,-0.13106 0,-0.13106 -0.1327078,-0.13106 0.1327078,0.26487 0.2665169,0.53194 0.3992247,0.79691 0.5330338,1.06651 1.0650214,1.73231 1.4642461,2.39816 0.799826,1.06502 2.1314744,2.12855 3.9948901,2.92843 z"
       ns2:knockout="Off" />
    <path
       style="clip-rule:evenodd;fill:#2d98b5;fill-rule:evenodd;stroke-width:1.45694065"
       inkscape:connector-curvature="0"
       id="path43019"
       d="m 4.2615722,285.54842 c 0.1327078,0.26541 0.3992247,0.53193 0.5330338,0.66293 -0.1338091,-0.13105 -0.4008766,-0.39757 -0.5330338,-0.66293 z"
       ns2:knockout="Off" />
    <path
       style="clip-rule:evenodd;fill:#2d98b5;fill-rule:evenodd;stroke-width:1.45694065"
       inkscape:connector-curvature="0"
       id="path43021"
       d="m 3.5957205,262.51128 c 0.1327078,-0.39922 0.3992247,-0.6658 0.6658517,-1.06502 -0.1327078,-0.26652 -0.1327078,-0.53303 -0.2665169,-0.79839 v -0.13271 c 0,0 1.3316484,-2.92993 2.5306992,-3.72832 -0.1327078,0 -0.2665169,0.13271 -0.2665169,0 0,-0.39923 1.464246,-1.73082 1.730818,-1.59828 0.1327078,0.13271 -0.5330338,0.79845 -1.0650214,1.19911 0,0.13271 -0.1327078,0.13271 -0.1327078,0.13271 -1.0650213,1.46424 -1.3316484,1.73087 -2.1300427,3.46169 0,0.26652 0.1338091,0.39922 0.1338091,0.66585 0.5319325,-0.53303 0.9324237,-1.19905 1.464191,-1.73087 0,0 0,-0.13381 -0.1327078,-0.13381 -0.2665169,0.26652 -0.5330338,0.26652 -0.5330338,0.13381 0,-0.53304 1.3316484,-1.99745 1.5982755,-1.73082 0.1338091,0.13381 0,0.39922 -0.3992247,0.79983 0.1327077,0.1327 0.1327077,0.1327 0.1327077,0.26651 0.266517,-0.13271 0.3992247,-0.39922 0.6657967,-0.53303 0.3992247,-0.79845 0.6658518,-1.19762 0.9324788,-1.46425 -0.1338091,0 -0.2665169,0 -0.1338091,-0.13271 0,-0.1327 0.3992247,-0.66579 0.7984494,-0.93242 0.6657966,-0.39922 1.0650215,-0.53303 1.0650215,-0.39922 0.132708,0.1327 -0.3992249,0.66585 -0.9324789,1.06502 H 9.1890513 c -0.1327078,0.26651 -0.3992247,0.53303 -0.5319325,0.93248 0.9324788,-0.7984 1.8634712,-1.59828 2.9284922,-2.26408 -0.266517,-0.53303 -0.266517,-1.06507 0,-1.59827 0,-0.26652 0.133809,-0.39923 0.266517,-0.53304 -2.3981016,1.06503 -4.5267127,2.52927 -6.2590175,4.52672 -0.3992247,0.53303 -0.9324237,1.19905 -1.464191,1.99744 -0.1338091,0 -0.1338091,0.13271 -0.1338091,0.13271 -0.7998811,1.19762 -0.9324788,2.26264 -0.3992247,3.46169 z"
       ns2:knockout="Off" />
    <path
       style="clip-rule:evenodd;fill:#2d98b5;fill-rule:evenodd;stroke-width:1.45694065"
       inkscape:connector-curvature="0"
       id="path43023"
       d="m 21.970684,250.25987 c 0.266517,0.13381 0.665797,0.26652 1.065022,0.39923 -0.133809,-0.26487 -0.399225,-0.53193 -0.533034,-0.6658 -0.399225,-0.6658 -0.798394,-1.06502 -1.199051,-1.06502 h -0.132708 c -0.531932,0.13271 -0.531932,0.13271 -1.598275,0.26652 -0.665797,0.1327 -0.665797,0.1327 -1.730818,0.26651 -0.266517,0.13271 -0.266517,0.13271 -0.399225,0.13271 1.33308,-0.13271 2.929924,0.13381 4.528199,0.66585 z"
       ns2:knockout="Off" />
    <path
       style="clip-rule:evenodd;fill:#2d98b5;fill-rule:evenodd;stroke-width:1.45694065"
       inkscape:connector-curvature="0"
       id="path43025"
       d="m 22.769079,249.86214 c 0.132707,0.26651 0.266517,0.53303 0.399224,0.79839 0.132708,-0.13271 0.399225,-0.39922 0.533034,-0.66585 0.665852,-0.53304 1.197619,-0.7984 1.730873,-0.93243 -0.266517,-0.1327 -0.533034,-0.1327 -1.199106,-0.1327 -0.399224,0 -0.665796,0 -1.464191,0 -0.399224,0 -0.531932,0 -0.932478,0 0.268169,0.1327 0.533034,0.53193 0.932478,0.93248 z"
       ns2:knockout="Off" />
    <path
       style="clip-rule:evenodd;fill:#2d98b5;fill-rule:evenodd;stroke-width:1.45694065"
       inkscape:connector-curvature="0"
       id="path43027"
       d="m 34.621262,252.65797 c 0.266516,0.13271 0.665851,0.26652 0.932478,0.39923 0.266517,0.13271 0.399225,0.26652 0.665797,0.39922 -0.266517,-0.39922 -0.665797,-0.79839 -1.065021,-1.19756 -0.399225,-0.26652 -0.799881,-0.53303 -1.598276,-0.93248 -0.133809,0 -0.133809,0 -0.266517,-0.13381 0.665852,0.53304 1.065022,0.93248 1.331649,1.46568 z"
       ns2:knockout="Off" />
    <path
       style="clip-rule:evenodd;fill:#2d98b5;fill-rule:evenodd;stroke-width:1.45694065"
       inkscape:connector-curvature="0"
       id="path43029"
       d="m 11.052357,291.806 c -1.1990509,-0.93391 -2.1300429,-2.13153 -3.0625216,-3.46317 -1.1990508,-0.6658 -2.2640722,-1.19757 -3.0638982,-1.99745 0.2665169,0.40088 0.6657967,0.93391 1.1990507,1.46568 1.464191,1.46568 1.8648475,1.86341 3.5957206,3.19506 0.6657965,0.39923 0.9309915,0.66585 1.3316485,0.79988 z"
       ns2:knockout="Off" />
    <path
       style="clip-rule:evenodd;fill:#2d98b5;fill-rule:evenodd;stroke-width:1.45694065"
       inkscape:connector-curvature="0"
       id="path43031"
       d="m 11.984781,252.79057 c -0.266517,0.53304 -0.266517,1.06502 0,1.59828 0.533033,-0.39923 1.065021,-0.66585 1.598275,-0.93248 0,-0.26652 -0.132708,-0.53193 -0.132708,-0.6658 0,0 0,0 -0.132708,0 -0.133809,0.13381 -0.266517,0.13381 -0.399224,0.26652 0,-0.13271 0,-0.13271 0,-0.13271 0,-0.39922 0.132707,-0.79839 0.399224,-1.19905 -0.133809,0.13271 -0.399224,0.13271 -0.533033,0.26652 -0.132708,0 -0.266517,0.13271 -0.399225,0.13271 -0.268169,0.26651 -0.400877,0.53303 -0.400877,0.66579 z"
       ns2:knockout="Off" />
    <path
       style="clip-rule:evenodd;fill:#2d98b5;fill-rule:evenodd;stroke-width:1.45694065"
       inkscape:connector-curvature="0"
       id="path43033"
       d="m 12.117378,251.99218 c 0.266517,-0.26652 0.533034,-0.53304 0.932424,-0.79988 -0.665797,0.26651 -0.932424,0.53303 -2.130043,1.19905 -0.798394,0.53303 -1.3316482,0.79845 -1.7308178,1.1991 0.9309918,-0.53303 1.8634158,-1.0665 2.9284368,-1.59827 z"
       ns2:knockout="Off" />
    <path
       style="clip-rule:evenodd;fill:#2d98b5;fill-rule:evenodd;stroke-width:1.45694065"
       inkscape:connector-curvature="0"
       id="path43035"
       d="m 23.302333,250.65904 c 2.130042,-0.66579 4.394115,-1.06502 6.25753,-0.79839 -0.266517,-0.13271 -0.533034,-0.13271 -0.932423,-0.26652 -0.266517,-0.13271 -0.531933,-0.13271 -1.199051,-0.26652 -0.531933,-0.1327 -0.665852,-0.1327 -1.197619,-0.26651 -0.930992,10e-4 -1.996014,0.66728 -2.928437,1.59822 z"
       ns2:knockout="Off" />
    <path
       style="clip-rule:evenodd;fill:#2d98b5;fill-rule:evenodd;stroke-width:1.45694065"
       inkscape:connector-curvature="0"
       id="path43037"
       d="m 43.9428,282.21932 c 0,0.13106 -0.133809,0.26487 -0.133809,0.39758 0,-0.13271 0.133809,-0.26652 0.133809,-0.39758 z"
       ns2:knockout="Off" />
    <path
       style="clip-rule:evenodd;fill:#2d98b5;fill-rule:evenodd;stroke-width:1.45694065"
       inkscape:connector-curvature="0"
       id="path43039"
       d="m 41.278017,286.34538 c -0.533034,0.53193 -1.197564,0.93391 -1.997445,1.33165 0,0.13381 0,0.40088 -0.266517,0.53193 -0.399225,0.66585 -1.199051,1.33165 -1.331649,1.06651 v -0.13381 l -0.266516,0.13381 c -0.132708,0.13381 -0.533034,0.26487 -0.932424,0.39757 -0.132708,0.13381 -0.132708,0.13381 -0.266517,0.13381 -0.531933,0.79988 -1.065021,1.46568 -1.730818,2.13148 0.665797,-0.26817 1.331648,-0.53469 1.997445,-0.93386 0.665852,-0.39757 1.065021,-0.79988 1.997445,-1.59684 1.598275,-1.46568 2.39667,-2.3981 3.329149,-3.73118 -0.131056,0.27092 -0.265416,0.53468 -0.531933,0.66871 z"
       ns2:knockout="Off" />
    <path
       style="clip-rule:evenodd;fill:#2d98b5;fill-rule:evenodd;stroke-width:1.45694065"
       inkscape:connector-curvature="0"
       id="path43041"
       d="M 35.818881,291.40535 Z"
       ns2:knockout="Off" />
    <path
       style="clip-rule:evenodd;fill:#2d98b5;fill-rule:evenodd;stroke-width:1.45694065"
       inkscape:connector-curvature="0"
       id="path43043"
       d="M 46.072843,275.16191 Z"
       ns2:knockout="Off" />
    <path
       style="clip-rule:evenodd;fill:#2d98b5;fill-rule:evenodd;stroke-width:1.45694065"
       inkscape:connector-curvature="0"
       id="path43045"
       d="m 45.140364,277.42455 c -0.132707,1.59971 -0.533033,3.19507 -1.197564,4.66075 0.665797,-1.19762 1.065022,-2.26556 1.464191,-3.46318 0.266517,-0.93099 0.399225,-1.73082 0.533034,-2.39667 -0.133809,0.39922 -0.400876,0.80131 -0.799881,1.1991 z"
       ns2:knockout="Off" />
    <path
       style="clip-rule:evenodd;fill:#2d98b5;fill-rule:evenodd;stroke-width:1.45694065"
       inkscape:connector-curvature="0"
       id="path43047"
       d="m 35.419656,291.67197 c -0.533034,0.26817 -0.932424,0.39758 -1.331593,0.6658 -0.266517,0.13381 -0.533034,0.39757 -0.667284,0.53193 h -0.132708 c 0.533034,-0.26541 0.932424,-0.39757 1.997445,-1.06353 0.132708,-0.13381 0.132708,-0.13381 0.266517,-0.13381 -0.132707,0 -0.132707,0 -0.132707,0 z"
       ns2:knockout="Off" />
    <path
       style="clip-rule:evenodd;fill:#2d98b5;fill-rule:evenodd;stroke-width:1.45694065"
       inkscape:connector-curvature="0"
       id="path43049"
       d="M 32.623816,293.27168 Z"
       ns2:knockout="Off" />
    <path
       style="clip-rule:evenodd;fill:#2d98b5;fill-rule:evenodd;stroke-width:1.45694065"
       inkscape:connector-curvature="0"
       id="path43051"
       d="m 13.449027,293.13765 c 0,0 -0.132708,-0.13381 -0.266517,-0.13381 0.133809,0 0.266517,0.13381 0.266517,0.13381 z"
       ns2:knockout="Off" />
    <path
       style="clip-rule:evenodd;fill:#2d98b5;fill-rule:evenodd;stroke-width:1.45694065"
       inkscape:connector-curvature="0"
       id="path43053"
       d="m 19.040761,294.86847 c -1.065022,-0.6658 -1.863416,-1.99744 -2.39667,-3.99494 -0.665852,-0.13381 -1.464246,-0.26542 -2.130043,-0.39758 0,0.39758 -0.533034,0.39758 -1.199051,0 -0.266517,-0.13381 -0.399224,-0.40087 -0.533034,-0.53193 -1.598275,-0.40088 -3.0625211,-0.93391 -4.260085,-1.46568 1.1975639,2.13148 3.062466,3.72832 5.059967,4.79477 0.399224,0.13106 0.798394,0.26542 1.464191,0.53194 0.798394,0.26541 0.798394,0.26541 1.9975,0.66579 0.665796,0.13106 0.665796,0.13106 1.863415,0.39758 0.0014,0 0.0014,0 0.13381,0 z"
       ns2:knockout="Off" />
    <path
       style="clip-rule:evenodd;fill:#2d98b5;fill-rule:evenodd;stroke-width:1.45694065"
       inkscape:connector-curvature="0"
       id="path43055"
       d="m 31.691393,293.53682 c 0.533034,-0.26486 1.199051,-0.53193 1.730818,-0.93099 -1.997445,0.66585 -4.260086,1.06359 -6.923382,1.33165 -0.132708,0.53193 -0.399225,0.93099 -0.798395,1.19762 0.266517,0 0.533034,-0.13381 0.932424,-0.13381 0.665852,-0.13381 0.665852,-0.13381 1.730873,-0.40088 0.798394,-0.13105 0.798394,-0.13105 1.997445,-0.53193 0.531933,-0.13106 0.798394,-0.26542 1.331648,-0.39757 v -0.13381 z"
       ns2:knockout="Off" />
    <path
       style="clip-rule:evenodd;fill:#2d98b5;fill-rule:evenodd;stroke-width:1.45694065"
       inkscape:connector-curvature="0"
       id="path43057"
       d="m 12.516548,292.737 c 0.132708,0 0.132708,0 0.132708,0 0.132707,0 0.132707,0.13381 0.132707,0.13381 0.0014,-0.13381 -0.131055,-0.13381 -0.265415,-0.13381 z"
       ns2:knockout="Off" />
    <path
       style="clip-rule:evenodd;fill:#2d98b5;fill-rule:evenodd;stroke-width:1.45694065"
       inkscape:connector-curvature="0"
       id="path43059"
       d="m 25.033151,295.1351 c 0.399224,-0.13381 0.798394,-0.53469 1.065021,-1.19762 -1.065021,0.13105 -2.130043,0.13105 -3.196551,0.13105 h -0.132708 c -0.266516,0 -0.531932,-0.26541 -0.798394,-0.26541 -0.399225,0 -0.932479,-0.13381 -1.199106,-0.40088 -0.266517,-0.39757 0.266517,-0.66579 1.065022,-0.53193 0.399224,0 0.798449,0.26817 0.798449,0.53193 l -0.132708,0.13381 c 0.132708,0 0.399225,0.13381 0.533034,0.26817 1.065021,0 2.130043,-0.13381 3.195064,-0.13381 0.266517,-0.53193 0.399225,-1.19756 0.531933,-1.99744 -0.132708,0.1338 -0.399225,0.26816 -0.531933,0.26816 0,0.13106 0,0.13106 0,0.26542 -0.266517,0.6658 -1.863415,0.79983 -2.130043,0.13381 -0.132707,-0.53193 0.932424,-0.93391 1.598221,-0.6658 0.533034,-0.39757 0.932479,-0.53193 1.065021,-0.66585 -1.197564,0 -2.396614,0.13381 -3.594234,0.13381 0,0 -0.132707,0 -0.132707,0.13381 -0.266517,0 -0.266517,0 -0.399225,0 -1.864847,0 -3.860861,-0.13381 -5.591734,-0.40088 0.665852,2.39816 1.598276,3.86092 2.795895,4.12898 0.133809,0 0.399224,0 0.665796,0.13381 0.533034,0 0.533034,0 1.464246,0.13381 0.533034,0 1.065022,0 1.464246,0 0.531933,-0.004 0.531933,-0.004 1.596789,-0.13822 z"
       ns2:knockout="Off" />
    <path
       style="clip-rule:evenodd;fill:#2d98b5;fill-rule:evenodd;stroke-width:1.45694065"
       inkscape:connector-curvature="0"
       id="path43061"
       d="m 1.0650214,267.97042 c 0.1327078,-0.26652 0.2665169,-0.53304 0.2665169,-0.7984 -0.2665169,-0.66579 -0.39922473,-1.33165 -0.2665169,-1.99744 -0.13270783,0.13271 -0.13270783,0.26651 -0.13270783,0.39922 -0.1327078,0.13271 -0.1327078,0.39923 -0.2665169,0.53194 0,0.66579 0.1327078,1.19905 0.39922473,1.86484 z"
       ns2:knockout="Off" />
    <path
       style="clip-rule:evenodd;fill:#2d98b5;fill-rule:evenodd;stroke-width:1.45694065"
       inkscape:connector-curvature="0"
       id="path43063"
       d="m 0.53325407,272.89779 c -0.1327078,0.26651 -0.1327078,0.66585 -0.1327078,0.93247 0.79839433,1.59679 2.66329683,3.06247 5.19250913,4.26009 0,-0.26817 0,-0.53193 0,-0.79988 0,-0.13381 -0.1327077,-0.26487 -0.1327077,-0.39757 -2.3981566,-1.06502 -4.1289746,-2.5307 -4.92736896,-3.99495 z"
       ns2:knockout="Off" />
    <path
       style="clip-rule:evenodd;fill:#2d98b5;fill-rule:evenodd;stroke-width:1.45694065"
       inkscape:connector-curvature="0"
       id="path43065"
       d="m 0.26662703,268.23704 c 0,0.39923 0.13380911,0.93248 0.3992247,1.46425 0,-0.26652 0.1327078,-0.53303 0.1327078,-0.79839 -0.2665169,-0.53304 -0.3992247,-1.19905 -0.2665169,-1.73088 -0.1327078,0.39923 -0.26486494,0.66585 -0.26486494,1.06502 z"
       ns2:knockout="Off" />
    <path
       style="clip-rule:evenodd;fill:#2d98b5;fill-rule:evenodd;stroke-width:1.45694065"
       inkscape:connector-curvature="0"
       id="path43067"
       d="m 0.79839433,270.10195 c 0.93242367,1.59827 2.66329677,2.92843 5.19256427,4.12748 0,-0.26651 0,-0.66579 0.1327078,-0.93242 -2.3966698,-1.06502 -4.2615172,-2.5307 -5.0599115,-3.99494 -0.13105587,0.26651 -0.13105587,0.53193 -0.26541563,0.79988 z"
       ns2:knockout="Off" />
    <path
       style="clip-rule:evenodd;fill:#2d98b5;fill-rule:evenodd;stroke-width:1.45694065"
       inkscape:connector-curvature="0"
       id="path43069"
       d="m 5.7257632,275.95882 c 0,-0.26541 0,-0.53193 0.1327078,-0.79691 -2.5306991,-1.0665 -4.2615722,-2.5307 -5.1925642,-4.12897 0,0.26652 -0.1327078,0.53303 -0.1327078,0.79839 0.9324237,1.59828 2.6632968,3.06247 5.0599115,4.12749 0.1327078,0 0.1327078,0 0.1327078,0 z"
       ns2:knockout="Off" />
    <path
       style="clip-rule:evenodd;fill:#2d98b5;fill-rule:evenodd;stroke-width:1.45694065"
       inkscape:connector-curvature="0"
       id="path43071"
       d="m 0,270.36709 c 0,0.1327 0,0.1327 0,0.26651 0,-0.1327 0,-0.1327 0,-0.26651 z"
       ns2:knockout="Off" />
    <path
       style="clip-rule:evenodd;fill:#2d98b5;fill-rule:evenodd;stroke-width:1.45694065"
       inkscape:connector-curvature="0"
       id="path43073"
       d="m 0,271.96536 c 0,0.39923 0,0.93243 0.2665169,1.33165 0,-0.26652 0,-0.53303 0,-0.93242 C 0.13380911,272.09807 0,271.83265 0,271.43211 c 0,0 0,0 0,-0.13271 0,0.26652 0,0.39923 0,0.6658 z"
       ns2:knockout="Off" />
    <path
       style="clip-rule:evenodd;fill:#2d98b5;fill-rule:evenodd;stroke-width:1.45694065"
       inkscape:connector-curvature="0"
       id="path43075"
       d="m 0.3992247,271.43211 c 0,-0.26652 0,-0.53304 0.1327078,-0.7984 -0.26651691,-0.39922 -0.3992247,-0.93242 -0.3992247,-1.33308 0,0.39923 -0.1327078,0.66729 -0.1327078,1.06503 0.1327078,0.26816 0.1327078,0.66728 0.3992247,1.06645 z"
       ns2:knockout="Off" />
    <path
       style="clip-rule:evenodd;fill:#2d98b5;fill-rule:evenodd;stroke-width:1.45694065"
       inkscape:connector-curvature="0"
       id="path43077"
       d="m 6.391615,259.18219 c -0.5330338,0.66579 -0.9324788,1.19756 -1.4656778,1.73082 0.2665169,0.39922 0.6657967,0.93247 0.9324237,1.19905 0.3992247,-0.13271 0.9324237,-0.39923 1.3316484,-0.6658 0,0 0,0 0,0.13271 0.7998261,0.53303 1.5982755,1.06502 2.6632968,1.46419 0.1327078,-0.26652 0.2665169,-0.53193 0.3992249,-0.7984 -1.8634159,-0.79839 -3.1950643,-1.8649 -3.860861,-3.06246 z"
       ns2:knockout="Off" />
    <path
       style="clip-rule:evenodd;fill:#2d98b5;fill-rule:evenodd;stroke-width:1.45694065"
       inkscape:connector-curvature="0"
       id="path43079"
       d="m 7.5891789,257.98457 c -0.1327077,0.13271 -0.3992247,0.39922 -0.5330338,0.53193 0.6657967,1.19905 1.8648474,2.13004 3.7283179,2.92992 0.132708,-0.1327 0.266517,-0.39922 0.399225,-0.66579 -1.7293863,-0.79988 -2.9284371,-1.73087 -3.5942888,-2.7959 z"
       ns2:knockout="Off" />
    <path
       style="clip-rule:evenodd;fill:#2d98b5;fill-rule:evenodd;stroke-width:1.45694065"
       inkscape:connector-curvature="0"
       id="path43081"
       d="m 8.3890601,257.31877 c 0.5330338,1.06502 1.7308729,1.99745 3.3290939,2.66324 0.798394,-1.06502 1.598275,-2.13004 2.529267,-3.06246 -1.199051,-0.66585 -2.130043,-1.33165 -2.529267,-2.13005 -1.199051,0.79697 -2.3981019,1.59679 -3.3290939,2.52927 z"
       ns2:knockout="Off" />
    <path
       style="clip-rule:evenodd;fill:#2d98b5;fill-rule:evenodd;stroke-width:1.45694065"
       inkscape:connector-curvature="0"
       id="path43083"
       d="m 3.7283182,262.77791 c 0.6657966,1.33165 2.2640721,2.66329 4.3941148,3.59572 0.3992247,-0.7984 0.7983944,-1.59828 1.1976191,-2.39667 -1.0650214,-0.53304 -1.8634158,-1.06502 -2.5292675,-1.59828 -0.3992247,0.26652 -0.9324237,0.53304 -1.3316484,0.7984 0,-0.13271 0,-0.13271 0,-0.13271 -0.3992247,-0.39922 -0.7983943,-0.79839 -1.0650214,-1.33165 -0.2665169,0.39923 -0.3992247,0.7984 -0.6657966,1.06502 z"
       ns2:knockout="Off" />
    <path
       style="clip-rule:evenodd;fill:#2d98b5;fill-rule:evenodd;stroke-width:1.45694065"
       inkscape:connector-curvature="0"
       id="path43085"
       d="m 6.2575305,272.36459 c 0.1338092,-0.26652 0.1338092,-0.66585 0.2665169,-0.93248 -2.3966697,-1.06502 -4.1274878,-2.39667 -4.9273689,-3.99489 -0.1327078,0.26652 -0.2665169,0.66579 -0.3992247,0.93242 0.9324237,1.46425 2.6632968,2.92993 5.0599115,3.99495 z"
       ns2:knockout="Off" />
    <path
       style="clip-rule:evenodd;fill:#2d98b5;fill-rule:evenodd;stroke-width:1.45694065"
       inkscape:connector-curvature="0"
       id="path43087"
       d="m 1.8634157,266.50623 c 0.7998811,1.59827 2.5306991,2.92987 4.9273689,3.99494 0.2665169,-1.1991 0.6658517,-2.39667 1.1990508,-3.59577 -2.2640722,-1.06503 -3.7282632,-2.26408 -4.5267126,-3.59572 -0.6672834,1.06502 -1.1990507,2.13004 -1.5997071,3.19655 z"
       ns2:knockout="Off" />
    <path
       style="clip-rule:evenodd;fill:#2d98b5;fill-rule:evenodd;stroke-width:1.45694065"
       inkscape:connector-curvature="0"
       id="path43089"
       d="m 5.9923903,284.21677 c 0,-0.13381 0.1327078,-0.26817 0.2665169,-0.26817 -0.3992247,-1.73087 -0.6658518,-3.46318 -0.6658518,-5.32659 -2.3966147,-1.19757 -4.2600854,-2.6633 -5.19250913,-4.12606 0.1327078,2.26264 0.5319325,4.26009 1.19761903,6.25759 0.9324237,1.33165 2.3966698,2.52921 4.3941148,3.46312 z"
       ns2:knockout="Off" />
    <path
       style="clip-rule:evenodd;fill:#2d98b5;fill-rule:evenodd;stroke-width:1.45694065"
       inkscape:connector-curvature="0"
       id="path43091"
       d="m 37.017931,253.85559 c 0.932479,0.66586 1.864903,1.33165 2.663297,2.13005 v -0.13271 c -1.065021,-1.06502 -1.598275,-1.46419 -3.196496,-2.66324 -0.132707,-0.13271 -0.266517,-0.26542 -0.399224,-0.26542 0.399224,0.26542 0.665796,0.66585 0.932423,0.93099 z"
       ns2:knockout="Off" />
    <path
       style="clip-rule:evenodd;fill:#2d98b5;fill-rule:evenodd;stroke-width:1.45694065"
       inkscape:connector-curvature="0"
       id="path43093"
       d="m 45.007822,273.69624 c -0.533034,0.66728 -1.331649,1.33308 -2.264072,1.99887 0,0 0,0 0,0.13436 0,0.13106 0,0.26487 0,0.39757 0,0.13271 -0.132708,0.13381 -0.266517,0.26487 -0.932479,0.53469 -2.130043,1.20054 -3.594289,1.7323 0,0.13381 0,0.39758 0,0.53194 2.795839,-1.06354 4.925937,-2.39667 6.124988,-3.86086 0,-0.39923 0,-0.79988 0,-1.19905 z"
       ns2:knockout="Off" />
    <path
       style="clip-rule:evenodd;fill:#2d98b5;fill-rule:evenodd;stroke-width:1.45694065"
       inkscape:connector-curvature="0"
       id="path43095"
       d="m 38.082953,288.61094 c 0.132708,-0.13381 0.132708,-0.26817 0.266517,-0.40088 -0.533034,0.26817 -1.065022,0.53469 -1.598276,0.6658 0,0.13381 -0.132708,0.26817 -0.132708,0.40088 0,-0.13381 0.132708,-0.13381 0.266517,-0.13381 0.265416,-0.13381 0.798395,-0.39923 1.197564,-0.53193 z"
       ns2:knockout="Off" />
    <path
       style="clip-rule:evenodd;fill:#2d98b5;fill-rule:evenodd;stroke-width:1.45694065"
       inkscape:connector-curvature="0"
       id="path43097"
       d="m 42.74375,284.34794 c -1.199106,1.20048 -2.929924,2.2655 -5.326594,3.19506 -0.132708,0.26817 -0.266517,0.6658 -0.399225,0.93386 2.264128,-0.93386 4.127543,-1.99745 5.192565,-3.3291 0.133809,-0.26486 0.400876,-0.53193 0.533033,-0.79982 z"
       ns2:knockout="Off" />
    <path
       style="clip-rule:evenodd;fill:#2d98b5;fill-rule:evenodd;stroke-width:1.45694065"
       inkscape:connector-curvature="0"
       id="path43099"
       d="m 40.080453,256.25226 c 0,0 0,0 -0.133809,0 0.133809,0 0.133809,0 0.133809,0 z"
       ns2:knockout="Off" />
    <path
       style="clip-rule:evenodd;fill:#2d98b5;fill-rule:evenodd;stroke-width:1.45694065"
       inkscape:connector-curvature="0"
       id="path43101"
       d="m 43.276949,261.57886 c 0.266517,0.13271 0.266517,0.26651 0.399224,0.39922 0,-0.13271 -0.132707,-0.39922 0,-0.39922 0,0 0.266517,0.26651 0.399225,0.66579 -0.132708,-0.26651 -0.132708,-0.39922 -0.266517,-0.53303 l -0.132708,-0.39922 c -0.132707,-0.26652 -0.266517,-0.53304 -0.399224,-0.7984 0,0.39923 0,0.6658 0,1.06502 z"
       ns2:knockout="Off" />
    <path
       style="clip-rule:evenodd;fill:#2d98b5;fill-rule:evenodd;stroke-width:1.45694065"
       inkscape:connector-curvature="0"
       id="path43103"
       d="m 37.017931,287.67703 c -2.663296,0.93391 -5.858361,1.59971 -9.454081,1.86342 0,0.40087 0,0.66579 -0.133809,1.0665 3.461691,-0.40087 6.525644,-1.0665 9.054857,-1.9975 0.266516,-0.26651 0.399224,-0.53193 0.533033,-0.93242 z"
       ns2:knockout="Off" />
    <path
       style="clip-rule:evenodd;fill:#2d98b5;fill-rule:evenodd;stroke-width:1.45694065"
       inkscape:connector-curvature="0"
       id="path43105"
       d="m 12.650632,289.54045 c 0,-0.13106 0.132708,-0.26487 0.266517,-0.26487 0.399225,-0.13381 1.065022,0.26487 1.464191,0.6658 0.665852,0.13105 1.331649,0.26486 1.9975,0.26486 0,-0.26486 -0.132707,-0.53193 -0.132707,-0.79691 -2.663297,-0.40087 -5.192565,-1.0665 -7.1914965,-1.7323 -0.1327078,-0.13381 -0.1327078,-0.13381 -0.1327078,-0.13381 -0.1338091,-0.13106 -1.3316484,-1.33165 -1.5982755,-1.59684 0,0 0,0 -0.1338091,0 0.3992247,0.79988 0.6657967,1.46567 1.0650214,2.13153 1.1990507,0.53303 2.7973265,1.06502 4.3956015,1.46276 z"
       ns2:knockout="Off" />
    <path
       style="clip-rule:evenodd;fill:#2d98b5;fill-rule:evenodd;stroke-width:1.45694065"
       inkscape:connector-curvature="0"
       id="path43107"
       d="m 7.5891789,285.41439 c 0.1327078,0.13381 0.1327078,0.13381 0.1327078,0.26486 0.2665169,0.40088 0.7998811,0.93391 1.1990508,1.33165 1.9975005,0.66585 4.5267125,1.33165 7.1914965,1.73231 -0.399225,-1.99745 -0.533034,-4.26301 -0.667284,-6.79222 -3.062521,-0.39757 -5.8583608,-1.19762 -8.2565173,-2.13153 -0.1327078,0 -0.1327078,0 -0.1327078,0 -0.2665169,-0.26486 -0.3992247,-0.6658 -0.5319325,-0.93099 -0.1327078,0 -0.3992247,-0.13381 -0.5330338,-0.13381 0,1.86342 0.2665169,3.59429 0.6657966,5.32659 0.4008767,0.13546 0.9324237,0.80132 0.9324237,1.33308 z"
       ns2:knockout="Off" />
    <path
       style="clip-rule:evenodd;fill:#2d98b5;fill-rule:evenodd;stroke-width:1.45694065"
       inkscape:connector-curvature="0"
       id="path43109"
       d="m 27.163194,289.67447 c -0.533034,0 -1.19762,0 -1.730819,0.13381 -0.533033,0.26542 -1.065021,0.66586 -1.598275,0.931 1.065021,0 2.130043,0 3.195064,-0.13106 0.0014,-0.26817 0.133809,-0.6658 0.133809,-0.93391 z"
       ns2:knockout="Off" />
    <path
       style="clip-rule:evenodd;fill:#2d98b5;fill-rule:evenodd;stroke-width:1.45694065"
       inkscape:connector-curvature="0"
       id="path43111"
       d="m 33.955465,292.20374 c 0.665797,-0.66585 1.199051,-1.33165 1.864902,-2.26264 -0.533033,0.26487 -1.065076,0.39757 -1.598275,0.53193 h -0.132708 c -0.133809,0 -0.266517,-0.26816 -0.399225,-0.26816 -1.864847,0.40087 -3.99489,0.79988 -6.124932,0.93391 -0.13381,0.1338 -0.13381,0.1338 -0.266517,0.1338 -0.132708,0.931 -0.399225,1.73082 -0.665852,2.39667 2.794408,-0.26651 5.191077,-0.79839 7.322607,-1.46567 z"
       ns2:knockout="Off" />
    <path
       style="clip-rule:evenodd;fill:#2d98b5;fill-rule:evenodd;stroke-width:1.45694065"
       inkscape:connector-curvature="0"
       id="path43113"
       d="m 36.352135,289.14271 c -0.665852,0.13381 -1.199051,0.39757 -1.864903,0.53193 0,0.13381 0.132708,0.13381 0.132708,0.26817 0.533034,-0.26817 1.065021,-0.40088 1.464191,-0.53193 0.133809,-0.13381 0.133809,-0.26817 0.268169,-0.26817 z"
       ns2:knockout="Off" />
    <path
       style="clip-rule:evenodd;fill:#2d98b5;fill-rule:evenodd;stroke-width:1.45694065"
       inkscape:connector-curvature="0"
       id="path43115"
       d="m 243.41253,277.82229 v -10.11844 h 10.11845 v 10.11844 z M 263.38571,297 v -9.85474 h -4.82098 c 5.03227,-0.93683 6.0186,-4.05469 6.0186,-14.3815 0,-15.17985 -2.13004,-14.78062 -16.11232,-14.78062 -14.11482,0 -16.11227,-0.39923 -16.11227,14.78062 0,15.1799 1.99745,14.77924 16.11227,14.77924 1.89695,0 3.57535,0.011 5.05997,-0.0165 v 9.47302 h 9.85473 z"
       ns2:knockout="Off" />
  </g>
</svg>
